HIERARCHY
ROOT hip
{
	OFFSET 0.000000 0.000000 0.000000 
	CHANNELS 6 Xposition Yposition Zposition Xrotation Zrotation Yrotation
	JOINT abdomen
	{
		OFFSET 0.000000 3.402643 0.000000 
		CHANNELS 3 Xrotation Zrotation Yrotation
		JOINT chest
		{
			OFFSET 0.000000 8.438565 -0.680529 
			CHANNELS 3 Xrotation Zrotation Yrotation
			JOINT neck
			{
				OFFSET 0.000000 10.207942 -0.272212 
				CHANNELS 3 Xrotation Zrotation Yrotation
				JOINT head
				{
					OFFSET 0.000000 3.130431 0.000000 
					CHANNELS 3 Xrotation Zrotation Yrotation
					End Site
					{
						OFFSET 0.000000 3.130435 0.000000 
					}
				}
			}
			JOINT lCollar
			{
				OFFSET 3.470700 6.669187 -0.816635 
				CHANNELS 3 Yrotation Zrotation Xrotation
				JOINT lShldr
				{
					OFFSET 3.198488 0.000000 0.000000 
					CHANNELS 3 Zrotation Yrotation Xrotation
					JOINT lForeArm
					{
						OFFSET 10.139888 0.000000 0.000000 
						CHANNELS 3 Yrotation Zrotation Xrotation
						JOINT lHand
						{
							OFFSET 8.370511 0.000000 0.000000 
							CHANNELS 3 Zrotation Yrotation Xrotation
							End Site
							{
								OFFSET 4.083176 0.000000 0.000000 
							}
						}
					}
				}
			}
			JOINT rCollar
			{
				OFFSET -3.470700 6.669187 -0.816635 
				CHANNELS 3 Yrotation Zrotation Xrotation
				JOINT rShldr
				{
					OFFSET -3.198488 0.000000 0.000000 
					CHANNELS 3 Zrotation Yrotation Xrotation
					JOINT rForeArm
					{
						OFFSET -10.139888 0.000000 0.000000 
						CHANNELS 3 Yrotation Zrotation Xrotation
						JOINT rHand
						{
							OFFSET -8.370511 0.000000 0.000000 
							CHANNELS 3 Zrotation Yrotation Xrotation
							End Site
							{
								OFFSET -4.083176 0.000000 0.000000 
							}
						}
					}
				}
			}
		}
	}
	JOINT lThigh
	{
		OFFSET 5.308129 -1.633274 1.361059 
		CHANNELS 3 Xrotation Zrotation Yrotation
		JOINT lShin
		{
			OFFSET -2.041588 -20.007561 0.000000 
			CHANNELS 3 Xrotation Zrotation Yrotation
			JOINT lFoot
			{
				OFFSET 0.000000 -19.190928 -1.224953 
				CHANNELS 3 Xrotation Yrotation Zrotation
				End Site
				{
					OFFSET 0.000000 -2.449906 4.627600 
				}
			}
		}
	}
	JOINT rThigh
	{
		OFFSET -5.308129 -1.633274 1.361059 
		CHANNELS 3 Xrotation Zrotation Yrotation
		JOINT rShin
		{
			OFFSET 2.041588 -20.007561 0.000000 
			CHANNELS 3 Xrotation Zrotation Yrotation
			JOINT rFoot
			{
				OFFSET 0.000000 -19.190928 -1.224953 
				CHANNELS 3 Xrotation Yrotation Zrotation
				End Site
				{
					OFFSET 0.000000 -2.449906 4.627600 
				}
			}
		}
	}
}
MOTION
Frames: 15
Frame Time: 0.033333
-1.017597 48.784538 1.917152 0.616013 -1.621032 -13.902413 0.000000 0.000000 0.000000 -2.678315 2.242647 3.176363 -0.259881 3.173826 0.068795 9.154370 3.433209 -2.866131 -0.209866 -5.005465 -2.068020 -68.970070 27.563120 -12.407080 -45.856438 0.589040 10.528003 -9.902744 3.965372 -3.557424 6.668678 9.321091 -2.311844 43.044670 -28.985174 8.624293 43.008343 2.949213 17.738161 4.183253 0.565846 -3.307274 11.764733 12.430193 14.428181 5.732163 -2.123547 10.059560 -4.639197 -0.131100 3.476263 0.896594 -7.629024 -7.435149 11.289432 1.882294 4.793880 -7.560381 0.191363 -2.397977 
-1.503017 48.767281 1.974897 -0.559716 -2.645696 -13.833540 0.000000 0.000000 0.000000 -1.689602 2.995366 2.425198 0.171448 3.496012 -0.391089 8.882602 2.897430 -2.590997 -0.833358 -4.554603 -1.145841 -73.671982 27.605490 -8.113504 -45.961090 -0.860236 12.642077 -10.617877 5.413689 -3.710248 6.013574 10.544338 -1.473024 46.768646 -30.252739 10.195456 45.218674 3.303799 18.964890 3.660932 -0.039701 -3.358974 13.042736 13.562360 15.520766 6.387164 -1.695403 8.672256 -4.474423 -0.091733 3.141425 2.742076 -6.324307 -7.087378 10.793944 1.921672 4.311775 -7.691608 0.191172 -2.527516 
-2.036620 48.736591 1.893535 -0.290925 -2.899215 -14.765810 0.000000 0.000000 0.000000 -1.780913 3.405604 2.240498 0.209369 3.564449 -0.087721 8.031357 2.634691 -2.248208 -1.183754 -4.624088 -1.234096 -77.051254 28.349466 -4.280334 -47.932266 -2.306987 11.795819 -8.831663 6.674900 -3.798964 6.081134 11.453980 -1.646279 51.037086 -32.398010 10.310615 47.347256 3.245466 18.041031 2.208172 -0.612235 -3.414606 13.391449 14.341775 16.281210 6.278040 -1.685027 7.839289 -4.502923 -0.101248 3.074052 1.979921 -5.532096 -6.438932 11.728781 1.863111 4.757572 -8.032141 0.180713 -2.566899 
-2.595562 48.739227 1.764768 -0.293575 -3.202166 -15.346851 0.000000 0.000000 0.000000 -1.548401 3.826198 1.820828 0.343060 3.701171 0.020121 7.494136 1.864433 -1.680387 -1.787364 -4.530457 -0.988960 -79.565849 28.934753 -2.957800 -50.019451 -3.001686 6.926671 2.743850 12.312727 -3.409824 5.560452 12.066466 -1.413319 55.094421 -33.606407 9.923298 48.455143 3.216943 17.616884 1.522827 -0.926410 -3.433509 12.892644 15.365726 16.792570 7.883840 -1.482359 7.324133 -3.844859 -0.062701 2.756043 2.096170 -4.631244 -5.985853 11.548154 1.912449 4.615254 -8.390045 0.239459 -2.767695 
-3.234272 48.729275 1.691883 -0.762170 -2.742668 -15.897618 0.000000 0.000000 0.000000 -1.231225 3.505208 1.105630 0.738305 3.134761 0.107795 7.062429 1.982073 -1.074589 -2.287004 -4.486282 -0.645875 -78.916550 29.360298 -2.845021 -50.473618 -3.157453 4.484442 2.396624 10.438626 -3.449868 4.811870 11.801443 -1.034746 58.157734 -34.068954 11.052949 48.660946 3.886424 15.514126 0.771847 -1.440466 -3.466060 12.837521 15.524963 16.847948 8.974480 -1.276601 6.782502 -3.089989 -0.074777 2.491304 2.202907 -4.582835 -5.998457 12.203117 1.961377 5.230167 -9.068770 0.275248 -2.981872 
-3.934420 48.708374 1.649457 -1.256958 -3.063670 -16.401426 0.000000 0.000000 0.000000 -0.826367 3.759742 0.205917 1.132073 2.939439 0.176051 7.809213 1.962848 -0.380970 -3.147241 -3.847255 -0.185506 -76.773376 29.411612 -1.575972 -49.894543 -3.476339 7.185879 -1.756425 8.912976 -3.657917 4.032454 11.598036 -0.626750 60.567440 -34.132336 12.569004 48.344788 4.460513 16.432562 1.039981 -2.637389 -3.482345 12.606005 16.747679 17.698681 11.131035 -1.101318 5.575609 -2.595946 -0.007393 2.135588 2.846070 -3.869936 -5.816609 12.351139 2.166492 5.802044 -9.483859 0.281049 -3.122476 
-4.579940 48.675415 1.516485 -1.402320 -3.278781 -16.972315 0.000000 0.000000 0.000000 -0.616919 3.945191 -0.450170 1.521211 3.271438 0.303356 8.809535 1.308550 0.469074 -3.561328 -3.060282 0.058918 -74.572647 29.198277 -1.198982 -49.320671 -3.037958 15.339123 -7.179250 6.890237 -3.764881 3.577400 11.975483 -0.439801 61.456394 -34.436581 14.383217 48.561584 5.020534 17.873560 2.428728 -2.818866 -3.487321 11.204619 18.003176 17.987125 14.612553 -0.675763 4.506516 -2.491136 -0.029134 1.841719 2.948759 -3.252481 -5.568849 12.742136 2.351932 6.581556 -9.815576 0.309564 -3.197880 
-5.150472 48.648659 1.339867 -1.614250 -3.241150 -17.519329 0.000000 0.000000 0.000000 -0.310607 4.042697 -0.665164 1.773049 3.329984 0.430664 10.434094 0.966693 0.840054 -3.840290 -2.661628 0.370764 -68.922142 28.303648 4.057189 -49.505432 -4.986014 16.703215 -8.461116 5.524246 -3.677119 3.213408 12.316590 -0.141696 61.066063 -34.348663 16.519508 48.598068 5.609553 19.553617 3.034149 -2.812639 -3.489143 9.058552 18.834244 17.365334 18.774338 0.233813 3.857534 -1.754820 -0.013623 1.496878 2.972855 -2.953891 -5.560318 13.099794 2.644776 7.175575 -10.109574 0.332609 -3.232385 
-5.670863 48.677845 1.096569 -1.087526 -3.379564 -17.590387 0.000000 0.000000 0.000000 -0.420780 4.403405 -1.155690 1.940814 3.554647 0.274122 11.638891 0.966633 1.054867 -4.032059 -1.898378 0.331672 -65.816246 27.118359 6.379041 -49.226929 -5.527060 21.289145 -7.555080 5.356924 -3.648932 2.929553 12.975433 -0.260262 59.822186 -34.095791 18.107174 48.756687 6.019186 19.684599 3.637760 -2.455230 -3.469884 5.175248 19.950378 16.063259 23.688738 1.463398 3.801078 -0.282342 -0.000087 1.014032 3.026428 -2.196737 -5.340186 11.883396 3.104128 6.818784 -10.296494 0.322524 -3.400991 
-6.084701 48.700619 0.945114 -1.491739 -3.149374 -17.439697 0.000000 0.000000 0.000000 0.006775 4.480814 -1.537671 2.539326 3.457017 0.166891 12.308854 0.605308 1.318492 -4.126442 -1.879733 0.740815 -63.135525 25.396963 8.042059 -48.665909 -5.959783 25.871834 -4.837070 5.691149 -3.628802 2.483600 12.965805 0.158694 58.236923 -33.311367 19.961578 49.101917 6.416576 20.648199 2.767404 -2.936362 -3.481036 1.883904 19.852043 14.008568 28.508133 2.926914 4.601501 0.887295 0.042243 0.755038 3.833891 -2.341660 -5.767362 11.181452 3.563119 7.568907 -10.345233 0.303535 -3.378226 
-6.427484 48.707813 0.790685 -1.797340 -3.074510 -17.457598 0.000000 0.000000 0.000000 0.509591 4.666294 -1.537653 3.102188 3.662074 0.254635 12.655734 -0.019524 1.513672 -4.295436 -1.470181 1.237321 -62.594181 23.737011 7.203302 -48.639435 -5.485379 28.400070 -4.506262 5.543906 -3.612832 2.292459 13.229340 0.650916 56.129257 -32.262794 21.183636 49.664055 6.648316 21.241772 2.171565 -3.411049 -3.504521 -1.816757 19.556185 12.060399 33.363972 3.902550 8.639254 3.976836 0.040770 0.632386 4.426729 -2.311323 -5.952294 10.766004 3.874681 8.304101 -10.840079 0.354784 -3.552418 
-6.617242 48.749496 0.605394 -2.074798 -2.535051 -18.045811 0.000000 0.000000 0.000000 1.068945 4.520717 -1.057564 3.485255 3.681331 0.743791 13.764977 -0.165953 1.572259 -3.897125 -1.356299 1.695701 -63.269188 21.748581 5.079092 -49.059391 -4.677570 26.142151 -3.975550 7.363005 -3.692760 2.514199 13.147058 1.140698 53.668819 -30.351913 22.338560 49.470787 7.089122 20.871275 1.091764 -3.475390 -3.507632 -5.175514 17.936413 9.950881 37.293880 4.415763 14.157592 5.982924 0.116351 1.317485 4.497273 -2.751013 -6.123367 10.578340 3.745433 9.168139 -10.967216 0.369466 -3.578825 
-6.794042 48.820629 0.489398 -2.299767 -2.069794 -18.889919 0.000000 0.000000 0.000000 1.543175 4.482328 -0.371485 4.027036 3.670737 1.429108 14.091951 -0.341662 1.611300 -3.485998 -1.407876 2.096477 -64.210739 19.987268 3.202425 -49.861332 -3.943181 24.046471 -3.711713 8.141345 -3.711603 2.765295 12.190396 1.614439 52.230610 -28.242786 22.940205 49.101208 7.367321 20.180454 0.748878 -3.926513 -3.520021 -7.468948 16.576000 8.916154 39.926811 3.992453 16.622452 4.687743 0.087888 2.065638 4.509957 -3.046631 -6.134298 10.451194 3.591176 9.966797 -11.018846 0.385907 -3.549527 
-6.958516 48.922016 0.419676 -2.695556 -1.705721 -19.247156 0.000000 0.000000 0.000000 2.128146 4.394522 0.117591 4.392269 3.543061 1.859163 14.939329 -0.078097 1.523436 -3.088111 -1.537415 2.584957 -65.276901 17.968130 1.920344 -50.633530 -3.450979 21.355330 -3.619424 8.497998 -3.736081 3.213006 12.321419 2.112758 49.704899 -26.521231 23.143690 48.871090 7.452343 19.448034 0.420377 -4.132414 -3.527712 -8.942923 14.975169 8.166579 40.385189 3.260161 15.530333 2.791023 0.077811 2.252337 4.983707 -3.286926 -6.210128 9.965771 3.435471 10.352144 -10.670506 0.329064 -3.379465 
-6.985843 48.848927 0.410108 -2.595224 -0.993512 -19.612570 0.000000 0.000000 0.000000 2.292379 4.277189 0.489835 4.512799 3.405420 2.319065 15.203740 -0.048810 1.572265 -2.762116 -1.548045 2.702981 -66.548409 16.513912 1.367014 -52.314396 -3.161577 18.436745 -3.676655 8.015497 -3.718334 3.588264 11.738685 2.247471 47.665768 -25.238625 23.383724 49.780499 7.331810 20.025797 -0.926180 -4.930135 -3.512093 -10.943464 12.904417 7.183753 40.779087 2.257083 13.040229 0.566245 0.011315 2.276840 4.411488 -4.002665 -6.534794 10.487053 3.416417 11.330279 -11.109704 0.352045 -3.447785 
